<svg id="visual" viewBox="0 0 900 600" width="900" height="600" xmlns="http://www.w3.org/2000/svg" xmlns:xlink="http://www.w3.org/1999/xlink" version="1.1"><rect x="0" y="0" width="900" height="600" fill="#FFF"></rect><path d="M0 564L21.5 558.5C43 553 86 542 128.8 534.8C171.7 527.7 214.3 524.3 257.2 523.5C300 522.7 343 524.3 385.8 526.8C428.7 529.3 471.3 532.7 514.2 539.8C557 547 600 558 642.8 557.3C685.7 556.7 728.3 544.3 771.2 538C814 531.7 857 531.3 878.5 531.2L900 531L900 601L878.5 601C857 601 814 601 771.2 601C728.3 601 685.7 601 642.8 601C600 601 557 601 514.2 601C471.3 601 428.7 601 385.8 601C343 601 300 601 257.2 601C214.3 601 171.7 601 128.8 601C86 601 43 601 21.5 601L0 601Z" fill="#d4f1f9" stroke-linecap="round" stroke-linejoin="miter"></path></svg>