<svg id="visual" viewBox="0 0 900 600" width="900" height="600" xmlns="http://www.w3.org/2000/svg" xmlns:xlink="http://www.w3.org/1999/xlink" version="1.1"><rect x="0" y="0" width="900" height="600" fill="#FFF"></rect><path d="M0 34L21.5 39.5C43 45 86 56 128.8 63.2C171.7 70.3 214.3 73.7 257.2 74.5C300 75.3 343 73.7 385.8 71.2C428.7 68.7 471.3 65.3 514.2 58.2C557 51 600 40 642.8 40.7C685.7 41.3 728.3 53.7 771.2 60C814 66.3 857 66.7 878.5 66.8L900 67L900 0L878.5 0C857 0 814 0 771.2 0C728.3 0 685.7 0 642.8 0C600 0 557 0 514.2 0C471.3 0 428.7 0 385.8 0C343 0 300 0 257.2 0C214.3 0 171.7 0 128.8 0C86 0 43 0 21.5 0L0 0Z" fill="#d4f1f9" stroke-linecap="round" stroke-linejoin="miter"></path></svg>